<?xml version="1.0" encoding="UTF-8"?>
<svg id="Layer_1" xmlns="http://www.w3.org/2000/svg" version="1.1" viewBox="0 0 1285.3 353.5">
  <!-- Generator: Adobe Illustrator 29.1.0, SVG Export Plug-In . SVG Version: 2.1.0 Build 142)  -->
  <defs>
    <style>
      .st0 {
        fill: #fff;
      }
    </style>
  </defs>
  <path class="st0" d="M100.6,0v226.5c1.4,6.1,0,17.8,4.8,22.1,5.9,5.5,16.3,3.1,20.5-3.3s3.8-9.6,3.8-11.3V0h100.5v234c0,.5,1.3,7.2,1.6,8.2,4.2,14.9,22.1,11.6,26.1-3.2s1.6-7.7,1.6-8.2V0h100.5v254.6c-2.6,61.3-50.5,106.3-113,97.8-30.1-4.1-51.5-22.6-67-47.5-15.2,22.3-33.5,40.7-61,46C43.8,365.2,1.2,318.4,0,246V0h100.6Z"/>
  <path class="st0" d="M390.1,0h142.2c102.6,1.7,153.7,119.2,80,193.5-2.2,2.3-10.1,7-10.1,10l57.1,141.3-105.8-1.2-47.4-108.8c-.6-30,.2-60.1-1.3-90h16.8c5.8,0,16-6,19.4-10.9,6.3-9.3,5.8-28-3.8-35-4.2-3.1-17.1-7.1-22.1-7.1h-23.8l-.5,253-100.5-1.1V0Z"/>
  <g>
    <path class="st0" d="M694.1,133.2h25.9v92.5h45.4v21.7h-71.3v-114.1Z"/>
    <path class="st0" d="M848.5,199.1h-42v27.1h46.9v21.2h-72.8v-114.1h70.4v21.2h-44.5v23.7h42v21Z"/>
    <path class="st0" d="M896.9,133.2v114.1h-25.9v-114.1h25.9Z"/>
    <path class="st0" d="M919.3,133.2h25.9v92.5h45.4v21.7h-71.3v-114.1Z"/>
    <path class="st0" d="M1103.9,189.1c0,37.4-22.7,60.1-56.1,60.1s-53.7-25.6-53.7-58.1,21.8-59.8,55.5-59.8,54.2,26.3,54.2,57.7ZM1021.4,190.6c0,22.4,10.5,38.1,27.8,38.1s27.4-16.6,27.4-38.8-9.8-38.1-27.6-38.1-27.6,16.6-27.6,38.8ZM1025.3,126.4c-.5-14.4,4.9-21.7,13-21.7s7.6,1.7,10.8,3.4c2.7,1.7,5.2,3.2,7.5,3.2s3.9-1.5,4.6-7.1h11.5c.5,15.1-4.4,21-13.4,21s-8-1.5-11-3c-2.9-1.7-4.9-3.1-7.1-3.1s-3.7,2.4-4.1,7.3h-11.9Z"/>
    <path class="st0" d="M1188.7,199.1h-42v27.1h46.9v21.2h-72.8v-114.1h70.4v21.2h-44.5v23.7h42v21Z"/>
    <path class="st0" d="M1212.1,220.8c6.9,3.6,17.6,7.1,28.6,7.1s18.1-4.9,18.1-12.4-5.4-11.2-19.1-16.1c-19-6.6-31.3-17.1-31.3-33.7s16.3-34.4,43.2-34.4,22.4,2.7,29.1,5.8l-5.8,20.8c-4.6-2.2-12.7-5.4-23.9-5.4s-16.6,5.1-16.6,11,6.4,10.5,21.2,16.1c20.2,7.5,29.6,18,29.6,34s-14.7,35.4-46.1,35.4-25.9-3.4-32.3-6.9l5.2-21.3Z"/>
  </g>
</svg>